<mxfile host="65bd71144e">
    <diagram id="E8WbMWeUVRFdceJ0gi1R" name="Page-1">
        <mxGraphModel dx="1386" dy="802" grid="0" gridSize="10" guides="1" tooltips="1" connect="1" arrows="1" fold="1" page="1" pageScale="1" pageWidth="3300" pageHeight="4681" math="0" shadow="0">
            <root>
                <mxCell id="0"/>
                <mxCell id="1" parent="0"/>
                <mxCell id="87" value="" style="rounded=0;whiteSpace=wrap;html=1;fontSize=18;" parent="1" vertex="1">
                    <mxGeometry x="175" y="351" width="687" height="294" as="geometry"/>
                </mxCell>
                <mxCell id="41" value="Glue Schema Registry" style="sketch=0;points=[[0,0,0],[0.25,0,0],[0.5,0,0],[0.75,0,0],[1,0,0],[0,1,0],[0.25,1,0],[0.5,1,0],[0.75,1,0],[1,1,0],[0,0.25,0],[0,0.5,0],[0,0.75,0],[1,0.25,0],[1,0.5,0],[1,0.75,0]];outlineConnect=0;fontColor=#232F3E;gradientColor=#945DF2;gradientDirection=north;fillColor=#5A30B5;strokeColor=#ffffff;dashed=0;verticalLabelPosition=bottom;verticalAlign=top;align=center;html=1;fontSize=12;fontStyle=0;aspect=fixed;shape=mxgraph.aws4.resourceIcon;resIcon=mxgraph.aws4.glue;" parent="1" vertex="1">
                    <mxGeometry x="474" y="541" width="70" height="70" as="geometry"/>
                </mxCell>
                <mxCell id="72" value="" style="endArrow=classic;html=1;strokeWidth=2;endFill=1;startArrow=classic;startFill=1;fillColor=#d5e8d4;strokeColor=#000000;" parent="1" edge="1">
                    <mxGeometry width="50" height="50" relative="1" as="geometry">
                        <mxPoint x="241" y="487" as="sourcePoint"/>
                        <mxPoint x="465" y="579" as="targetPoint"/>
                        <Array as="points">
                            <mxPoint x="241" y="579"/>
                        </Array>
                    </mxGeometry>
                </mxCell>
                <mxCell id="73" value="" style="endArrow=classic;html=1;strokeWidth=2;endFill=1;startArrow=classic;startFill=1;fillColor=#fff2cc;strokeColor=#000000;" parent="1" edge="1">
                    <mxGeometry width="50" height="50" relative="1" as="geometry">
                        <mxPoint x="557" y="580" as="sourcePoint"/>
                        <mxPoint x="806" y="485" as="targetPoint"/>
                        <Array as="points">
                            <mxPoint x="806" y="582"/>
                        </Array>
                    </mxGeometry>
                </mxCell>
                <mxCell id="74" value="1. Validate/Register Schema" style="text;html=1;strokeColor=none;fillColor=none;align=center;verticalAlign=middle;whiteSpace=wrap;rounded=0;fontSize=14;" parent="1" vertex="1">
                    <mxGeometry x="242" y="545" width="202" height="30" as="geometry"/>
                </mxCell>
                <mxCell id="77" value="4. Request schema (if not cached)" style="text;html=1;strokeColor=none;fillColor=none;align=center;verticalAlign=middle;whiteSpace=wrap;rounded=0;fontSize=14;" parent="1" vertex="1">
                    <mxGeometry x="574" y="545" width="226" height="30" as="geometry"/>
                </mxCell>
                <mxCell id="76" value="3. Read messages" style="text;html=1;strokeColor=none;fillColor=none;align=center;verticalAlign=middle;whiteSpace=wrap;rounded=0;fontSize=14;" parent="1" vertex="1">
                    <mxGeometry x="563" y="387.75" width="154" height="30" as="geometry"/>
                </mxCell>
                <mxCell id="75" value="2. Publish messages" style="text;html=1;strokeColor=none;fillColor=none;align=center;verticalAlign=middle;whiteSpace=wrap;rounded=0;fontSize=14;" parent="1" vertex="1">
                    <mxGeometry x="302" y="392.75" width="163" height="30" as="geometry"/>
                </mxCell>
                <mxCell id="78" value="Kafka Cluster" style="shape=image;verticalLabelPosition=bottom;labelBackgroundColor=default;verticalAlign=top;imageAspect=0;image=data:image/png,iVBORw0KGgoAAAANSUhEUgAAAMAAAAEhCAYAAAAps6+UAAAgAElEQVR4nOx9Z1ebWbL1RgnlnFEECRGNA3YHz/T0ur/s/rO5d67bbWNsk6MkhHLOGQneD/3W6QeM24AeCeFmr8XyBBtJj06dU6dq194TnV7/QiIU4BGP+DtCJBZM3Pd7+EtcXFx88d/pf6P/zP05Pz9Hv9/H+fk5AEAgEEAgEEAoFGJiYuLaHwBf/PmIvwcmLq6usDHG+fk5er0eOp0OWq0WGo0Gms0mWq0WOp0OOp0Out0uut0uer0eAEAkEkEikWBycpL9yGQyyOVyKBQKyGQyTE5OQiQSPS7+vyFE9/0GrgN3R+/3++j1euh2u2g2m6jVaqhWqyiVSiiVSigWi6hUKiwY2u32FwHAXfRKpRIajQY6nQ56vR5arRZqtRpKpRJyuRyTk5MQCoWXToxHfL8YywCYmJjA+fk52u02KpUKcrkcUqkUkskkUqkUstksW/i1Wg2NRgPtdhtnZ2fo9Xo4Pz+/lAIJhUKIRCKIxWLIZDIoFAqoVCpoNBro9XpYLBbY7XZMTU3BZrPBYDBArVZjcnLyMQC+c4xNAFD+fnZ2hlarhWq1ilwuh0QigdPTU0QiEcRiMSSTSeTzeVSrVZb6nJ2dod/v3+h1hEIhS4lkMhk0Gg1MJhOmpqbgdrvhdrvhcrlgt9thNBqhVqshlUohFoshEDwWC7433PsdgHuhbbfbKBQKiMViOD4+xuHhIUKhEOLx+KVFTykO7fS3/QgTExPsciwWiyGRSCCXy6FWq2EymeB0OuHz+TA7Owu/3w+HwwG9Xv94InyHuNcAoF2/3W6jXC4jlUohHA7j4OCALf5EIoFSqYRWq8XSmmFBIBBALpfDYDDA4XBgZmYGc3NzCAQCmJ6ehs1mY6nR42nwfWCkAXD1pfr9PlqtFjKZDA4ODrCxsYGtrS0cHx8jnU6jVquh2+1eKmsOGwKBgF2cVSoVbDYbAoEAnj17hpWVFfj9fphMJkil0i+C4PF0eHi4lzvAxcUFut0uSqUSotEodnd3sbm5iZ2dHYTDYWSzWbRarVunNnzg/PyclVIbjQaq1SrK5TIKhQKy2Syy2Szm5ubgdDqh0WggkUhG/h4fwR9GEgDchXxxcYFOp4N8Po9gMIgPHz7g/fv32NvbQzKZRLPZRL/fv5fFfxXn5+doNpuIRqMoFotIJpPsPrK6uorp6Wno9XqIxWJMTEyw9/x4EjwcjPQEoAWVTqexs7ODDx8+4NOnTzg8PLzXXf+vQBftSqWCXq+HdruNer2OcrmM1dVVLCwswGKxQCqVPi78B4ihBgB3MZ+fn6PVaiGZTGJ7extv3rzBu3fvEAqFUC6XWeNqXHF+fo5arYZOp8MacXQxv7i4gNVqfbwcP0CMLAVqNptIJBL49OkT3rx5g/X1dYTDYbazPhR0u10Ui0UcHR2xdO7s7AwrKyuw2WyQyWT3/RYfcQsMPQD6/T7a7TaSySS2trbw9u1bvHv3DuFwGLVabWTVHT5xdnaGQqGAXq+Hfr8PkUjEqBNWq/XaCtEjxhNDD4BOp4N0Oo2NjQ38+9//xocPHxCJRFCv1x/k4if0+31Uq1UEg0FcXFyg1+thYmICQqGQpUOPGH8MLQCo1JnP57G3t4e1tTV8/PgRoVDowe78V9Hr9VAqlXB8fAyxWAylUgmZTAaJRAKj0fjIMH0AGFoA9Ho9VKtVhMNhvH//Hu/fv8fJycmD3/mvgnsSSKVSyGQyxh9SqVQQicaGbvWIa8D7t0M05kajgdPTU2xubuLz588IhUKoVqs3Jq09JPR6PXYx1mq1MBqNkMlk8Hq9UCgUj7TqMcZQAoAuibu7u1hfX8fR0RGKxSLOzs74frmxwdnZGXK5HPb29qDT6aDT6aDVaiGRSCAWi9nfewyE8QLvAdDv91Eul3FycoKtrS3s7e0hm82i2+3y/VJjBSqJplIp7OzswGq1wmq1QiaTQafTQSgU3vdbfMQ14C0AKPVpt9tIpVLY39/H3t4eYrEYGo0GXy9zLYjafHXO9+p7uyt9+qagZlkkEsHe3h5cLhf0ej0UCsVjp3hMwesJQBfCUCiE7e1tnJ6eDr3iIxQK2YVTqVR+MbxC5LZWq4V6vc6mx4Z1F+Fe/nd2duBwOGCxWCCRSB5PgTHEwAFAuylRHbLZLI6Pj3FwcIBsNjuUvF8oFGJychJyuRxarRYGgwEmkwl6vZ5VYOhEIMp1pVJBoVBAPp9HoVBApVJBs9lkdGs+QanQ4eEhZmdn4fF4IJPJLnWJH0+D8QBvJ0C/30elUkE0GmVTXLVajfd0QyQSQa1Ww263Y3p6Gj6fD263G1arFTqdjp0CdAJQJ7pWq6FYLCKdTiMSiSAUCiEcDiOVSqFWq/EaBHQPikajOD4+hs/ng0ajYQP3jxgf8BIAVPnJ5XIIh8M4PT1FqVTi9eIrFAohk8lgNBoxPT2Nubk5LCwswOfzweFwQKfTsVz7agpEc8b1eh2FQgHxeBzHx8fY39/HwcEBIpEI8vk82u02L+kal/J9cnKCUCiEqakp6HQ6djI9YjzAWwC0Wi2kUikEg0GkUil0Oh0+fjWDTCaD2+3GkydP8OrVKywvL8PlckGn00EmkzE+ztUFNjExAbFYzAJIq9XCbrfD5/NhYWEBm5ubeP/+Pba3txGPx9FsNnl5v0QAjMViCAaDmJubw9TUFJsdeMR4gJc7wNnZGSqVCpLJJBse4Sv3FwqFUKlU8Hg8ePHiBX744Qc8ffoUHo8HWq32Uo39OlBViDvqSNpAWq2W6QHJZDKIxWLEYjHeutXdbhe5XA7RaBSpVAozMzOMKvGI8cCdA+A6NYdUKsVmefmq/NDO/8MPP+DXX3/Fs2fPYLVaIZfLIRQKcXFxcesd9eLiAiKRCDqdDvPz81Cr1ZDL5RAIBLi4uEAkEuHlJKCKUDqdRjKZRKFQYM2xR4wHBj4Bzs/P0Wg0kM1mkUqlUCwWeVFwmJiYgEwmg8PhwIsXL/D69Ws8efIEU1NTbLEO8rsnJiYgkUggEokgEAjQ6/XYT7fbRSKRQLvdHugST5WxYrGITCaDYrEIh8MBpVL5mAaNCXgJgHq9jnQ6jWw2i3q9zsuAi1gshslkwvz8PH744Qe8ePECTqcTMpmMzd8OuojodygUCni9XkxMTKDRaKBcLjO1ikE/y9nZGarVKrLZLPL5PNscHvlB4wHeAiCbzaJQKPBy+eUuyufPn2NhYQE2m43t/HwtHPo9QqEQCoUCNpsNS0tL7LNUq1XU6/WBTgFuipjL5dBoNNDv9x/LoWOCgceW+v0+6vU68vk8L+ONlJoYDAb4/X4sLS3B5XJBoVAMbcpqYmKC9Rc8Hg+Wlpbg9Xqh0Wh4oTOfnZ2hVCohn8+jXq9/l4zYh4qBVtT5+Tk6nQ5qtRrK5TLb3QZ6QwIBVCoVHA4H/H4/pqenR0YmE4vFMBqN8Hq98Pl8sNvtkMvlA584VCUrFotoNBo4OzsbO/WLvysGCgDqstbrddRqNV4aSQKBABqNBi6XC263GyaTCTKZ7BLZbVggaUSLxQK32w2HwwGVSjXwydPr9ZjIVrPZxNnZ2Xc1FPSQwUsAkDZ/t9sd+IsVCoXQarWMREaLf1QQiURQKpWYmpqC0+mEWq0e+PVpPJTMPB5PgPHBnb9ZohcT05L0+Qf9YsViMZMs12g0jNYwiooJnTBSqRQGgwEWiwVqtfqbzbZvgegY7XYbzWYTnU7n8QQYEwx8AnQ6HbTbbXQ6nYElDQUCAaRSKdRqNTQaDWt2jRoikQgqlYqR6walL5BqRLfbvfSsHnH/uHMAUC2+1+vh7OyMubMMEgBEcyYHl/vQ4yfaBL0PuVw+sDkG1/yDLJweU6DxwMDJNdeVcdAvlYhr5OclkUjupVlE+j5knsEHgY27WQy6UTyCPwwUANfZlA4C2n3J0+s+qcNfs1O9K7hjmXw8q0fwg4ECgO9FQuAulPsCzQ/zOUdMAf5IgRgfDJwC0UA6H18sVZXa7TYrF95HtYTsWc/Ozpgf2SABwD3ZuBasj7h/DFQGJQoB5cmDfrHUWeY21u7TJYZbt+ejwScWizE5OfnoODlGGOhboKoNDXwPelmkxlqlUkGpVOKFWnEX9Ho91Ot1ZsA9aNWGNgoa5H9Ujx4fDFQGJUkS+lL5qJYQbyabzaJcLrPu8ihOAm5zr1gsIpvN8jIwT8+KNguJRPIYAGOCgb4FqpdzRwr54M2Uy2UkEglmmzTKewAN+KRSKcTjcV70TAUCASQSCXOpf3SSGR/wkgIpFIov5EjuivPzcyYpEo1GmVrDKE4A8jDLZrM4PT1l0i588JvkcjlUKhWkUumjbPoYYeATQCKRQKlUQqvVQqFQDExdoAGbeDyOUCiEaDTKPMSGVT+n30uivqQbRK6Vg74mUSuI3vEYAOODgac96Ms1Go28DJAQc7JQKODo6AhOpxN6vR5KpZIXavLXQKlPJBJhfsWlUokXdQuJRAK9Xg+TyQSlUvkYAGOEgQOAZEusViuMRiMv1kB0CpycnGBzcxNWqxV6vZ6lEhQEfHRngT+qT41GA8lkEnt7e9jc3EQ0GkWj0eBtuN9oNMJsNrMAeMR4YOBvQiAQQKlUwmq1si+4WCzyMkyezWaxu7vLWJkikQgOh4N3kly320UymcTnz5+xtraG/f195PN5XkqwYrEYKpUKFosFZrOZ97nmRwyGOwcAfYETExOQy+UwmUxsp6bh70F2T1JWi8fj2NjYYKxMAGwhDdJ4o5yfjLs3Njbw+++/Y2trC4lEAq1W687vnSAQCNjub7PZYDQaH6RM+lUO09fuYldpMQ8h0Ac+AWiARK/Xw2azwWq1IplM8lK+JKulYDCI8/NzNn65srICl8sFlUp150t3r9djWv6fP3/G77//jk+fPiESiaDdbg/0vgkikQgajQZWqxV2ux0Gg+HBuUdyZxmIydrv99Hr9S59v1yah0gkglgshlgsZqTGcQUvAUCKCjabDU6nEycnJ7ykQcCfTozBYPCS0vPCwgITxaUeBGmDXgWXidntdtFoNFAoFBCNRrG7u4uPHz9ia2uL+RnwVWmSSCQwmUxwuVyw2WxjbZpHz6fX6zEuFv3ZaDRQr9fZNFu322UBQZQYoo5LJBLWG5LL5WymgtgCXCrIOJwOvHwbdNRbrVZ4vV4cHR0hHo/ztpOen5+jWq3i6OiINclCoRAWFxfh9/tht9uZLwAZUdDDpXkFUoimf390dITt7W3s7u4iHA6jUCig1WrxWmaVSqVMxt1kMo0NBYL7GWlz6PV6aLVaqNVqyOfzTOiM/BTK5TLzVGi322yy7fz8nDVEpVIpYwZQ2Vev18NsNsNiscBiscBgMECj0VyizlwVMx4leAkA0vIxmUyYnp6G0+lEKBRiCgh8gPSHiKRWLBYRi8VwcHAAh8MBs9n8hUQ6AMYurdfrKJVKyGQyiMViODk5wcnJCRKJBCqVCq9GHlxtI4/HA6/XC71eP/BsMV+gab6zszPU63WUy2Xk83lkMhmk02mkUimkUinkcjmUy2XUajU0Gg20Wi12AlA6RAFAaQ+dAjTURKOlJpMJFosFVqsVNpsNFosFJpOJFTjua/iJt/OY1Bzcbjd8Ph+CwSCq1SrK5TKvVAbyIahUKohEItBqtezhUhBQV5pU2cgcI5vNIpPJIJ/Po1wu86ZkcRVCoRAajQZOpxMzMzNwOp1D7WF8C1d3fEoly+UykskkwuEwQqEQazxmMhmUy2XU63W2y1+9/H7tEkx/0o9QKIREIoFCoYBarYbZbIbT6YTP52O6T3a7HTqd7tou+bCDgpc7APBnGmSxWDA7O4uTkxPk83k0Gg1evQLoC6QclY7sWCzGnNonJychEonY0d7pdNBsNlkuO2xpEolEApvNhrm5OczMzLD05770QOk1qd9BzysUCuH4+BjhcBjxeJzt+PSd8cXEpdSqVCohl8uxFHZ3d5e5/MzMzMDlcrFm4ajEEHi9kYnFYmi1WszMzGB5eZk91GENtpATS6fTQaVSAfD1HeOvdi4+IRQKoVar4fV6sbi4CLfbfW+XX+7l/+zsDLVaDalUit1/dnZ2mKFJtVod6qZAStmklh2LxZhLz/T0NJaWlvDkyRPMzs6yO93V+9wwwNu3Qm+SLn7z8/M4PT1FNptlQy7DxKgW+F+BZB3dbjcWFhYwPz8Pq9V6b34AExMTbOGRad/VhU9K2KOcuyC6S7lcRrvdRqlUQjKZRDAYZIEwNzcHu93OC7/sr8D7tkR3Aa/Xi+XlZWQyGVQqlUtls+8RExMTmJychM1mw+LiIpaWluB2u5my3KhTH9r1q9Uq4vE4dnd38enTJ2xsbOD4+Bi5XI53G6vbglKyZrPJDFYymQxT5l5aWoLD4bgkkMY3eA8AbkVoeXkZ5XIZhUKB1d756A2MI0QiEfR6PQKBAF6+fImFhQVW+Rn14ucyW4+OjvDhwwesr69jf38fyWQStVptKPa1dwWdCER9LxQKSCQSSKVSePXqFWZnZ3njmV3FUAKA9P2dTieePHnCjDP6/T5KpdJ3p4omEolgMBgQCATw/PlzLC8vw+FwDOxkcxdQhSebzeLw8BDr6+t49+4d9vb2kEqleOvN8A0KgmKxiGazyYoVpDwYCARgNpsvacXysbEM7WYmEomg1Wrh8/lYVYFU0fgyoRsHEBnQ6/Xixx9/xA8//ACv1zsQTeOuoKJAOp3G9vY23rx5g7W1NQSDQRSLRV5ta4cJ+gxU3KCSNVlkcQ3HB8XQAoBSIaPRiPn5eVaC7PV6ODk5GYqJ9qhBUu4+nw8vX77Ey5cvMTs7C71eP/KLL/eyu7Gxgbdv3+L9+/c4Pj5GqVR6UKkn12eZmm30AwB2u/1SEAxyEgy9NkdVoZWVFXYR7nQ6iMViI5/35RNkq+RyufDq1Sv84x//wPLyMiwWC8RiMS8eZjcBbSKUQ+/v7+PNmzd48+YNwuEwLzPN9wWaDz84OGDeE0Sws9lsvHSPhx4ApPhst9vx9OlT9Pt9CAQCxrysVqsPLgio0uX3+7G6uorXr19jaWkJFovlXujONEG3u7uLt2/f4uPHj+zZPtTFTyCr2dPTU8hkMkZzoexi0JN2JN0Zbp5MrXEqa52enqJarT4IwVhK6zQaDaanp/HTTz8x+1a73c7oF/R3hwl6nV6vh0qlgpOTE3z8+BHv3r1jpMGHvvgJ/X4f1WoVx8fHbASXfBt0Oh1rMt7lmQ81AOgNXVxcsHFGp9MJkUgEmUwGrVaL9fV1HB4ejkVd+luQSqWwWq2Yn5/H6uoqXr58ifn5ebbz81mduAkuLi7QarUQi8Xw8eNHrK+vIxgMfleLn0DpUDgcxvr6OlQqFaNZD1JtG8kJwLUjValUlzRyiCd+fHyMTCaDRqMxVqcBcd2VSiXj97x69YpdeLnH8ChzfiL65XI5HBwc4OPHjzg4OEA+n38w1Z7b4uzsDPl8Hnt7e1CpVIxNarVa75x6jpSgQj2CyclJmM1mZofkcDjw+fNnbG1tIRQKjc2XyH2vPp8PKysrePbsGebn5+F0OlmH8j4IbqSfFAwGsbGxgd3dXaRSqbF4bsNEt9tFOp3G3t4eG8ElAuRdcC/jScQcFYvFUCgU0Gq10Ol0MBgMMBqNCIfDTJaw3W6PtIRHE25SqZSNMxK5b2VlBYFAAFar9d7sm4A/d/9UKoWdnR3s7u4iHo/zomJxG3BT3FGB5Gvi8Th2dnZgtVphsVhYSnTbVOhe5/O4pUSyRg0EAtjd3cXe3h7C4TDS6TSq1So6nc7QHzQJfWk0Gtjtdvj9fiwuLmJxcREzMzOwWq1Qq9X3Lm14dnaGcrmMk5MTbG9vIxQK8aJgdxPQBsE1MCHG6XWzwsPAxcUFarUaQqEQLBYLPB4PjEYjU9++De41ALgPUyqVMoU5i8UCl8uFUCiE09NTJBIJ5HI55rPLlyMlSZbTRYrcKaempuDxeOD3++Hz+eByuWA0Gkdu2XodSC2DxjqDwSCy2ezQUh8SQCb5S5VKBaVSeck7jYh3xPunn0ajwYt39HXodrvIZrMIBoM4PDyE3W6HSqW6dszyr3DvE9rcsiHxh4xGI3w+H7LZLKLRKMLhMMLhMKLRKNLpNPL5PJtPvcuFmS62lH6ZTCY20D89Pc3GOs1mM5s1Jl76qBpc14GGgcrlMkKhEA4PD5FMJhnPik/QM1KpVDCbzXA4HJiamoLNZoPJZLr0XGhAqVqtIpfLMWFhEjiu1+u8M4FJxzWVSuHg4AButxt2u/3WwmP3HgDcMToAl0botFotzGYzXC4X5ufnkUqlkE6nkUgkEAwGEQqFkM1mb7XL0P3DZrPB7/djZmYGdrudSbpYLBYm80g6nuMCojtks1k2yUW6qXyCihNTU1NsYsvj8cBms8FgMECtVkMmk7E06OoJkM/nkUwmEYlE2OY1jNlr2gzC4TCCwSD8fj8bib3p/Wx8vt3/D9olqOGhUChgtVovzfZGo1Gsra3h7OyMGVjcNACEQiFryv3yyy948eIFpqamoNfrmXQ57fa04wOjVyu4DtQQopHCRCKBZrPJ2+/nmoR7vV6srKzg6dOnmJubY7x87mnIfSY0fUZs1FKphEQigcPDQ2xsbGBzc5Opb/B1n+OmgzTWabPZ2Hu8CcYuAK4ORJPiAPUOyLg6lUpBp9PdWiaRSpt6vR5ut5vN7MpksrH37iLKA6UXfIn3An9266emprC8vIwXL15gaWkJXq8XJpOJ9W++9XyIpiCVSqFSqWAwGGCz2eBwOPDx40dsb28jkUigXq/zEgQ0WZZMJhGLxTA9PQ29Xn/jy/DYBcDXQDmpXC6HWq1mRtq3XbTcMqdKpYJKpRr7xU+7K/H8o9Eocrkcb2RCgUAAuVwOh8OB58+f4/Xr11hdXYXb7Wa9DuDmpyDpBE1OTkKtVsNoNH4RRLFYDM1mkxf1QGoIxmIx5HI5uFwuyOXyG12GH0wA/N3Bda6hfJqv3H9ychJ2ux0vXrzAf/3Xf+HZs2dMyuWuUu70b0goYXp6GmKxmHVsz8/PEY1GedFgpbtAPB5HKpVCo9GAWq2+0ab24AKAas6D+Pfy8TtGCRpxrFarSKfTjDLCx+4vFovZzMbLly/x/PlzeL1e3hp9dHJrtVpGGeFKLaZSqYEDmeT06dnUajUYjcYbvf8HFwB/R5AwcLlcRjabZRfJQcEtCLx69QrPnj2D3W4fyignVd8ozarVaigUCqjX6wPTtikNKhQKTNuo0+ncyIzwbx8A45r3c0Hlz0qlwnQ6B7VuBf5IfaxWKwKBABYXF+H1elnqwDe4Isperxf5fB6np6csmAepZtEJSVVCmitWKpXf/Lf3r9T6iG+CAqBcLjPltkGrPxMTE2z3X1hYgNfrvcStHwYuLi7YrDgJh01PT0OpVA68EXHlHvP5/I2bgw8uAK6aMNz1gnZfMoV3AennkF4nH7s/DZN4vV5WCh4Fx4k7K+7z+VjZctDxxvPz80tD9DetkD24APg7gtr+RP/gw7dYKpXCZDLB4/HA4XBAoVCMbEMgBT2n0wm3233JOmoQ9Ho9NJtNVKtVFgDfchZ9DIAHAOLaED2cD99ipVIJo9HIOPWjkCfnnryTk5PQ6XRM1VupVPLiMd1ut29FwnsMgAcA+mLJoYWPACBrW/JUGDXniUZk9Xo9DAYDL4rQdBkm/anv8g7wdwRxbMiUYtD8n+YwtFot66iPmuZNVHTyDeCDas61eaK5hG89qwcXAFedCu/aCBuW6/ywwGfTTigUQiaTQaVSXSK3jRpCoRCTk5PM1YePILxtg/PBBcAjBgfX1O4+XeupN0Dv4z6GjR4D4G+KcSsF39f7eBCd4GGaX1xNh8ZlQQwbNL/b7/fvNRWkYRq+pHCu+pR9Cw8iALgfim+zCfqd9z3r+y3wuWNT15TrBXYfo57UvCIZdL5mhx/UTPBVXOdhS5caqoeXy2VUq1W02+1b72DcqSVysSSaLhltX7fY7vNkoCDlvr9BQJ3lSqXCaBWjDgAqWTYaDdRqNV5smrjP6abPauwCgN4wubpTZ69SqaBYLKJQKCCZTLLJotsOVZDfcDQaxfv371Gr1WC1WmEwGKDT6aDVapnb5E3YhKMA0QdIGJaPAKhWq8wutt1u89KIuu17aDablxyE+DgBaNiJDPa++fcHfkUewJ0nJfl04r7k83lks1mk02kkk0nmYJ5MJpFKpW4dADRYcnp6il6vh9PTU5jNZmbgbLVaYTabmaM5zQmLRKJrZ2FHAaIuKJVKXmr2tAnkcjlks1lUKpVLk1/DAvcuR7ydbDaLXC7Hi7IFTaLJ5fIbl1XHIgCAP8SeKpUK85GNRqOIRqNIJpPIZrMoFouoVCrMOod8gm8rt0FWPKVSCe12G8lk8pImkV6vh8ViwdTUFFwuF5xOJ6ampmA0GtlI36hBXVO+Gka0++bzecTjcaTTaTYXPSp9Uxrv5Eqn8NHhJnd6CoCxTYGoY9fpdJiURiKRQCQSQSgUwsnJCeLxOHOZbDabvGnLcP2Fy+UygD9V4Ui12mq1wuVywev1Ynp6munOGAwG1j0dVQ2dOrcajYaJAgyKs7MzlEolRCIRRCIROByOGw++DwLK/em1T09PmX0THwxXpVIJjUZz443iXgKAHkKlUmH+sAcHBzg6OsLp6SnS6TRb9OQqM2y5PapIkL5NsVhEJBLB1tYWbDYb3G43Zmdnmfv7VSWyYYKG1nU6Hftya7XaQCnD+fk5qtUqwuEw9vf34fV6odfrodFohsoLImZrIpHA/v4+s8viY/cnPVedTndjdulIA4AWWbVaRSaTQSQSwfHxMQ4PD3F8fIxoNIp8Po9Go3Ev+vZ0D6EqEaVkqVQKsVgMsVgM0WgUgUAAfr+fUXnJ1XxYgUAngE6ng16vh0ql4sVts9VqIR6PY39/Hx6PB1qtlukxDeNCzNXxOTg4wP7+PhKJxMDOlVylP9v1KvUAACAASURBVJ1OB51ONx4nAPfSw837QqEQtra2sLW1haOjIySTSTbEMApx1dug1+uxMl0ul0MoFML29jYCgQBWVlbw5MkTTE9PM58APur116UCZCpC2pxisXhggaler4disYjj42Mmd6hUKiGRSC7pLfHxWejulc1msb29jfX1dRwdHSGfz/OibUSixlTNu+l9ZugOMdycLxqN4uDgAFtbW0z9mab4x9nRhE6FTqeDer2OcrmMYrGIbDaLVCqF5eXlS+ppg+boXNlxqtik02nEYjHk83ne9IBoUabTaWxtbTFS2sXFBRuOH/RUozVAcu6bm5t49+4dNjc3mRUqHyLHcrkcZrMZZrMZGo3mxifyUAKAPhClPLTLrK+v48OHD8zMgdxgxmnH/xbIk6vZbCKTyeD09JQJVb148QLT09PQ6XRffAE3+TK4uyVRBKrVKpLJJHOBOTw8RKFQ4OXSSK9FUuPcjvjExASsVuu14mN/9VmuNjJpDaTTaWxubuLNmzd49+4dgsEgb1a5ZFdL4r0kkHtvATAxMYFer4dGo4FEIoHd3V18/PgRnz9/xvHxMbLZLJrN5oOiI3PBvTB3u13Wnc7n83j+/DkWFhZgs9luPeZHuyUFGRUI9vf3sb+/j+PjY8TjcWYqyOfnqdVqODk5gUAgQLfbRa1Ww+LiIlwuF7Ra7Y0lKLmnF8kWxmIx7O3tYW1tDR8/fmQXXz5OfZouMxgMcLvdsFqttyoV8x4A9AVWq1XE43Fsbm4y685wOIxKpTLW6c5tQAuHAoB6FRQcU1NTUCgUlzqSVxcR97Ts9XpotVosXdzb28PGxga2t7cRiUR4Kxdeh36/z34/dd9LpRKWlpbgdruh1+tZJ/pb4rj0OUjIeGdnB58+fcLm5iZOT095qfkTaLyTKnUmk+lWvRreA6Df76NSqSAUCmFtbQ2///47oy2Me65/V/R6PZRKJRwdHbHqUaVSwcuXL+HxeKBWq7+6e5JMIDmjRyIR7O/vY29vDwcHBzg9PUUul0OtVuNVWvw6UJc8Eomg0WggmUxif38ffr8fHo8HdrsdJpOJqURTmkGbHvV0CoUCU2wmE49oNIpsNsu7jRN5uLlcLjgcDuh0uluVpgcOAG7eSrV9srL8z3/+g0+fPiGZTA5c6hp3UEWl3W6zSyotbo/H84XOJpeUV6vVkMlkEA6HsbOzg83NTRweHt7LptHv91Gr1VinOBaLIRQKwePxsGYgCd0SLYMCuNFooFgsIpVKMW+ASCTCFj7fn0MgEECtVsPtdmN6ehpWqxUKheJWaSdvJ0C/32e74O+//463b99id3eX3fT/DiDf3ng8DgCM6nt2dgafzwetVsu+HKrupFIpHB0dYXt7G7u7uzg+PkYqlUKlUmFs1/sAvT+ijYRCIWg0Gmi1WtaRJpMMYunW63XU63VUKhWUSiVmacUn1ZkLiUQCs9nM+jJ6vf7Wjck7B8DVnb9UKuHw8BDv3r3D27dvsbW1hVQq9bdZ/ARKI6LRKFu8RNOdnp6GTCZjlbFYLIajoyPm9EjumO12eywKBKRG0W63USwWIRKJmOw5MS5FItElXn+322Xd+2F+BrFYDL1eD6/Xi7m5ObjdbsZoHUkAELgt9d9//x3//ve/sb+/PzZev/cBOgmSySS73E5MTKDf70Ov16NUKmF/fx+bm5vY3d1FJBJBPp/nle80DFDJmtI2rosOlTxHJTggl8vhdruxsLCA2dlZWCyWOxEVBwoAOiZPT0+xvr6OtbU1HBwcIJPJ/G0XP4Hb9ieXm2KxCK1Wi1KpxLhP8XicV6eXYYNSmftKzWg2wmKxYGFhAcvLy0zZ7i7qFncKAC61IZVKYXt7m6U9uVzub7/4CcQ6TSQS6Ha7CIVCkEqlqNfrjOV6G3+zR/xBCTEYDPD5fHj69CkWFhZgMBjuLKp15xPg7OyM8Trev3/PLrzfe7XntqB0KJ1Oo1QqQSQSsebZ91gSHiao6uP3+/HixQssLi7CZrOxxtddaBu3DgC69JI95YcPH/D582fEYjE0Go1bv4G/A7jzB1znST7BHe5/KM43twExYp1OJ54+fYqXL19iZmZmYPr2nQKg0WggHA7j06dP2NjYwMnJyePivyGGtfglEgkzr6ZL6veSXk1MTEAmk8Hj8eDly5d49eoV5ubmYDAYBp5duNW/pkH1fD6P/f19fP78GcFgEKVSiXez5puALpc0r8tVAxAIBF8oStCfXO3IhwwyFVer1TCZTGxIp1QqsWk6PoZN7hMCgYDt/M+ePcNPP/2E5eVlxvkZlHp+qwAgmkMkEsH29jYODg5QKBTuJZcVi8WQyWRsAkitVkOhUEAmk7E2PRGyqDtLEhzUpKH5g4cI8vW12+2YnZ3F4uIi/H4/VCoVkskkPn36hPX1dZycnDxY4uHExB/G3S6XCy9fvsQvv/yC1dVVOJ1O3uaXbxQAVPWh2vbBwQEODg6YLMkoHi7N7MrlcrboyX/WbDZDr9dDrVZDLpezeV1uAHAXP6kh5PN5lEol1vofFtGML5CWplwuh8FggNPpRCAQwPLyMhYWFuB2uyGTyZDJZKBQKAD88dxisRhqtdqDCnahUAi1Wg2Hw4Fnz57h9evXePbsGWt48aXOceMTgLRkjo+Psbm5iUgkMjKeCg08GI1GuN1uZq3jdDphsVjYmKBMJoNYLL6UAhFRiyovZKSWTqcRjUYRCoUQCoUQj8fZsMm4BgHZGrndbiwuLmJlZQULCwvweDwwGAxsgIWkXKRSKRQKBT58+IBQKMSrt/AwQYt/ZmYGq6ur+Pnnn/Hs2TM4HA7elStuFAA0yJxOp3F8fIyjoyNks9mh1/sp/zMajXA6nfD5fPD7/ZiZmYHT6YTRaIRGo2E6MH9VC+YyFkmQiX5fOBzG8fExQqEQYrEYCoUCb1NXg4L47hqNBjabDTMzM5ifn2cpz3UMSLFYDKfTyTT4SVIlGAzy6jDPN7jWTTMzM6zas7y8DKfTORTxrr8MANoJie5LQ+yxWIxXTve1b0wkglKphMPhwNLSEp49e4alpSV4vV4YjUbI5fIvxKq4OzeXdUkgXfzJyUmo1WqWPz958gThcBhbW1v49OkT9vb2kEwmefHjGgSkc2MymeDz+bC8vIynT59ibm4Odrudjf5xA58+r1wuh8vlYumS0WiEWq1mn+2+hAe+Bipz2mw2LCws4IcffsDz58/h9/thMpmYwzzfEo7fPAGohk27/+np6dBb91KpFEajEX6/H0+fPsXKygqbudXpdLcyU7hulE8oFLK5XblcDqVSCbVaDYPBAIvFApvNhq2tLYRCITZ+OErQyWc2m5kcy8LCAgKBADweD/PUuq4EyB1kl8lksFgsrGCg1+sxNTWFvb09RCIR5HK5ew8E7mf1eDyYn5/HkydPsLi4CI/HA71ef+NptLvgmycACakmEglG1R0WW5Hq2WazGfPz8/jpp5/w008/YXZ29pKNJ3e3v8uDuXpSyGQy2O12ZtpmtVrZ7npwcMCUC4Z9N6CLvlqtxtTUFAKBAJ4+fYonT55gZmaGuSlyB1G4n+M6iMViGI1GtsgcDgccDgebOUgmk6hWq6xnMOwGGrdhJ5FIoFKpYLPZMDc3h5WVFaysrLBdXyaTQSgUDlW6/psBQBb0p6eniEQiKBQKQ7tIkXP5ysoK/vGPf2B1dRU+nw8Gg4FXH6urD5K+FIVCAbvdztSiFQoFJBIJdnZ2kMvlhkrtJhf1qakpVtacn59nIly3OfmunnqkmEzSKkajER6PB0dHR+xUTyaTKBQKbAZgmJ9TqVTCYDDAbrfD4/HA5/NhdnYW09PTX3zWYfs2XBsAXK4/XX5jsRhSqdRQcn8uw29paQk///wzfv75Z/j9fmi12qGLthKo2mS32xnfnXbF3d1d5HK5oZ0EEokEJpMJi4uLrOpBam18BL9AIGA9Ep1OB7vdDq/XC5/Pd6kAkMlkUC6XGTWbGobUSLzJZ78q5y4SidhlXKPRwGKxXCpqTE9PY2pqCjqd7tIpT79rmPjLE4C4/olEgolX8aHjchV0TC8uLuLXX3/Fjz/+yAvP464QiUTQ6XSYnZ3FxcUFhEIhWwSFQmEo95/JyUnYbDbMz8/j6dOnCAQCUKvVrKzLB7gevVQ2tVqtmJubQyaTQSKRQDweRzweRyqVQj6fR6VSYX0SEiP+WiDQwqcTlIRqSbDKarXC6XTC4XBgamqKydJfLWGPEn+5umjSi9rqw6iRk6aLz+fD6uoqVldXMTs7O9Kd/yroRDIajZiYmMDZ2RlTfyCpj2FUwKhKpdVqoVarMTk5yftrAH/KiFN51Wq1wu12o1QqMbGvZDKJTCaDQqGAcrnMtJAoCOhE4P5OKi6Q8yONUBoMBpjNZthsNthsNta4JIW7+zQf+WoA0JhboVBAPB4fCs+fLqAOhwOrq6t49erVve78VyEUCqHVauH3+y91kolawedmcHZ2hkKhwGjTnU5nJDsidZdJUtxoNGJmZgbNZhO1Wg3VahXVahWNRgOtVgvNZpNtBFxrJUpzZDIZ5HI5ZDIZlEolVCoVk1ykFEwikVySV7lPfHWVkSZmPp9nas18X36p4kO1+NnZ2TsNNg8LtFOaTCYEAgFkMhnE43Gm4sDnhkCnbTqdRj6fR71eZ4tl2KAFTJdk4E/aO9G4O50Om/cl3SM6ASj1oZlhiUTC9EXpZ1y+06u4FABXhUxJHZmqA3zXixUKBbxeL548eYJAIACLxTK0Y38QSKVSWK1WBAIBxGIxZLNZlMtlXgOAu+HkcjlUq1Votdp7MeSgdUCNRtILvcm8L1ccmAKD25QctyD46glAuS4Rxviu/dNUv8/nw/z8/KXJnnEDVYccDgfm5+cRiUQQj8fRbrd5s/ekYXN65vfJ27lagbnruOFDwLWrjbq/JPdXr9d5Lf9Rzd1qtcLn88Hr9V7SzBlHCIVC6PV6zMzMYGZmBlarlRf1ZAKlHPV6HYVCgc0Ljysx73vBtSuOuxtR6ZPPqodIJIJer4fL5YLL5WJcD65F6biAe5RT0Ho8HrhcLmg0Gl53R/LuKpVKjwEwIvxlAFANmO+6NzV9SG+S6t3jDO7Y4dTUFNxuN3Q6Ha8BQCcvVV5o43kMguHhqwFAQqek4c8XaMrHZDKx7t+4L34uqD/gcDhgMBh4f++9Xg/1eh21Wu1epRH/LvgiALimBhQAfH4J1JI3Go2wWCxQq9X35r97G9D7E4lE0Gg0rJnD58WdZhaoBk8B8HgCDA9/mQLV63VeOfHckT6dTgeDwTAyb1q+QBx9vV5/qZvJF0ho9mqz6RHDgaB3/uXD5U5P8SmtwXXz02g0rN3/kAKAUji1Ws2c5Pn0C+73+2yOeRT2sH93CLr9ywHAFTolzgff9X8aQlEoFGPbIfwaiMeuUCiYCgWfF2F67lwm5iOGB0G7/+XiJu2c21BgbwJKgaRSKbPbGefa/3WgzzA5OQmZTPbFSCIfuNp1fUyBhgdB50oAkJw3abzzfQIQY5DShoe0+xOI8sv9HI94mBD0z79MgXq93lCOYG5Tidv0emgL6CrP5SF+hkf8AcHVOzBXTpDvo/e6Y/0hH/EP9X0/4k8Irn6HdMkjKi7fnG1Ksfi+X4wS3E3i8ZL6sCEQTFz9H/7Ib4c1tEBlvmHcL0YBUsogk+xhfI7HdGp0EAivRgDwRZ7OF4jx2Gw2mRbnQ9tBr34GvomCVwfKH4NhuBBIhNdLhIhEInYK8E35bTabqNfraDQaD47xSIS1er3ORgX5JAtSCkoCv49BMFwIJq8pYRPzkZSW+ab8tlotlEqlS4M2D+UyfH5+zt7/MGYlhEIh6zHw/ewf8SUEk8Ivdxdut1Mulw+F7FUsFpHP59FoNB5UGkRKeYVCAcVikXf9UFKG4DbZHk+A4UEgFnyZAtEcKE3z86nQQErTuVwO6XQa1Wr1QUh2c6XWy+Uy0uk0isUir6Oi1GWWyWRM4vwxAIYLwXUPl6tPo1KpeJcoOTs7Qz6fRywWQy6XQ7vdfhCnAKU/mUwGsVhsKNZQYrEYarWa+X09pkDDxbW5DXH2dTodNBoN74xN0sA5PT1FIpFgCgvjeBfgvqdOp4NSqYRYLIbT01PeBbJIH1+j0QzluT/iS1wbAFxTBq1Wy7taQ7/fR7lcZg4t8XgcjUZjrBb+VZyfn6NWqyEWiyEcDiMej6NarfKa/4tEIigUCuZ5JpFIHmkWQ8alVc192HQU63Q6KJVK9mXwgauOM6FQCMVicSQS5HcB7f7ZbBbBYBDhcJilbnzm/zRzbDAYoNFoxo4qTh3wfr//1Z+H1t3/anIvkUiYqKlOp4NcLmcTSnyAdtRQKISdnR24XC7m+zpueW+/30e9Xkc0GsXOzg4ikQjvKtmU/mi1WpjN5rGbleYufiJJXtUGpf7RQ2riXRsANLmlVquZE6NSqeTdFK/dbjPXSbI+EovFzAXwPkG72Pn5Oer1OmKxGPb393FwcIBUKsW7TqpYLGbS4SaTaSjFh2+BOwhFsoitVgvtdhvtdvuSROLXxHG5kog09yGVSplkIs2A3Pf3S/jqEyYjA5PJBJvNBp1Oh3w+z7scYLFYRDAYxKdPn1i6dVVLctQPi3uEd7tdpNNpbG9vY2NjA6FQaCjVH1KbsNlsvA/bX8V1KQq3S1+r1ZhCXS6XQz6fR7FYvCST/rUA4Mqic61sjUYjU72Wy+VfTe9G/V1/NQAoJyU/WpPJhNPTUzQaDd5enDRIM5kMdnZ2WPVDLBbfq07oxMQEK3mmUilsb29jbW0Nu7u7zC6Jb1AKRPV/okEMA7TI+v0+o3VUKhXk83lks1n2Q7qwxWKRGYuTMO51mQBXHl0mk7E7JJn0mc1mWCwWWCwWFhC04d3XZOBfnrFkFOF0OmG326FUKnmvfFxcXKBeryMUCmFychIqlYotANLdGdVJwJ1RoEvv9vY2fv/9d3z48AEnJydotVpDe32iiZAwFjXGuMWJQT3RuGlOs9lEoVBAIpHAyckJwuEwK03ncjnmCdDpdFjefxuHGO7oqFqtZh5lHo8HMzMzzBmGTrzruE/D/s6F//3f//3ff/UXSCOIHETIcZzPm/5VKe6LiwtIJBJGCRjV2CG9RrvdRiKRwMbGBv7v//4P79+/Rzgc5j34r3t9ootTX4Ty6kE6wtwAIhn2SCSCra0tvH//Hm/fvsXa2hq2trZwdHSEaDTKrJKIsMid4fjWD12UyZyciIPlcpkxABKJBFKp1CXlcTpBRqkT9c0AEAgEzBqIzBuazSbvnVuuGFe73QYAFgRfY0UO+oCu7oy0KyYSCWxtbeG3337D27dvcXh4iEqlMtTFT7qglUqFpRx03/qrEdK/egbci3yv10Oj0WCl548fP+K3337Db7/9hvX1dRwcHCAej6NYLDI1QL42OS4HrFKpIJvNIpFIIJFIsEAjNgCXCs79fMMKhmsD4LojlwhguVwO5XJ5KPwdOpobjQajGvd6PXaUcrkxfDwQ7u+hC/nR0RHevXuH//znP/jw4cNIdn5Cv99Hu92+ZExCZhn9fp89h5vSpLm7fqFQwNHREd6/f4///d//xdu3b7G1tYXT09NLpL5h1/BpoKjb7aLZbKJcLiOTySCVSiGXy6Fer7MMgD7rME+CG50A5JNVr9eRyWSQzWbZLs03uDshVR2u7kb0n+9aTiNqw9nZGdrtNqrVKpLJJA4PD7G2tobffvsNHz9+RDgcRq1WGylPiUsXz+fzzCug1WpdsiS6zoDi6mekXT+VSmFvb499trW1NRwcHCCdTt+bUTb3/RWLRWSzWeTzedRqNXS7XTaZOOy+wjcDALi8k9DONMwHR4uTdsJMJsNcU87OznhpuNDvT6VSODg4YDvjb7/9ht3dXaTTabRarXsj6XH9AvL5PFKpFLOqOjs7Y6fB17SViLYdiUSwtraG//mf/8GbN2/YZxsnGjp9Vm6WQaculVWHpSH1l1UgrkOIRqOB0+mE3+9HKBRi+vXDCoJ+v8+cGcvlMrLZLJLJJKLRKGZmZlhpVq1WM/M12jGu2vJQDkw7Ph292WwWsVgMoVAIh4eHCIVCSCaTI9/1vwZaxOQZkM1mkclkkE6nkUqlEAgEmEo1qewBf6RzdNH9/Pkz3r17h42NDZycnIzNZ7uK8/Nz9llrtRqbGKQGHJmo8E0PuVGrkStpPjs7ywyV6WgeJnq9HiqVCtrtNjKZDPb392Gz2eBwOOBwOGC322G1WmE0GlkwUCUBwKV8k2rd13niUh48jnPKFxcXrCdRrVZZV3pxcRErKytYWFiAy+WCTqeDQCBgFBO65O7s7Nz7iXZTcMvijUYD5XKZVR6HYZ974wAQCoVQqVTweDxYXFzE6ekpa5gMozHEBd0LuDthNBqF0WhkP8Sg5MouAmCuhs1mE9VqFcViEYVCAfl8HoVCAaVSiT3gcQY1DbvdLur1OsrlMqvMxWIxzM3NwePxQCaTIZPJYGNjA7/99hs2NzeRSqWGdmcbBoh7FY/H2fdCJWKukyhhkBPhxmQTupmTs3gkEkEymWTpxKgYgHQi1Go1JBKJL+w46b9LJBK2aIi/wrX8pG7m1Zb+QwBVrOr1OpLJJILBIA4PDzE3NweNRsPKuPv7+0in07zzlkaFTqeDVCrFUtjz83N299NqtbxwpW78G+gUUCgUmJqawpMnT9hlhUhTowgCKqORNg/tbFQrFwqF7CFx/y79PCSq7tdAn4uoCa1WC5VKBbFYDHK5HKVSCclkEvl8Hp1O577f7p1BHflMJnOp8AEAgUAAarV64CC49b8mg7v5+XlWw61Wq8hkMvf6sKkLSb4G3Evw94zz83PWM0kkEhAKhezC/73YK9FJAPyxEZMLvVAoZH/S/3db3CoAqPYslUphs9mwuLjImhedTge5XG5s0onvfeFfBZ0I3yuINLm3t8eMSSQSCdxu90DzIzfqA1wFVx5cIBAwS1USifq7Lb5vgWyVaNidWK7jNv887qDTndgBOp0OOp1uIPWMOydQdBEJBAJoNpts8R8fH6NWq9311353mJiYgFqtZt7CSqUS5XIZ4XAYiUSC98my7x2tVgvRaBRKpRIWiwV6vR6Tk5PQ6XR3CoA7nQDsH/9/FTOJRAKBQMDIbK1Wi3fG6EMElY69Xi9evXqFH3/8EUtLS8xlnnguxKB8DIRvgyp7vV7v0gy1SqW60ykwUAAQF0UqlUKpVLJ0iDp5415bHzbkcjlb/L/++it++uknzM3Nwe12w263w2AwQCqVXqrxP5QgoKrgfQh3ceeTpVIps6y9i47SnVMgLk1CqVRiamoKKysrjNY6MTGBRCIxVpyTUYGeidvtxurqKn7++Wc8efKENaq63S60Wi30ej0sFgscDgf29/cRDocZ34dPxYlBQbwjuVzOjAHJP0IgEDAqO80Ot1otNJtNlgkMA61WixEY/X4/rFbrnWZHeJm6ptKU1+u95AH28eNHNkY5Ll/msDExMQGFQgGv14uXL1/in//8J168eIGpqSlIJBIAfwzA63Q6KBQK2O12+P1+zM3NYXNzE9vb2wgGg8hms7zrjt4WlOKSOILVamW0E9KLEgqFX8wycOnNlUoFnU6H989BXDGihTidTpjNZsjl8ludSgMHAL2QSCSCSqWCy+ViHTupVAqZTIaTkxOUy+Xvpi79NVBlwufzYXV1FT/99BOWl5cxNTXFUkQqJUskEubEI5fLmfu82+3G3t4eDg8PEYlEkMvlRn6KCgQCKBQKmEwmOJ1OuN1uuFwu2Gw2mEwmFrxXTwAKglwux4iLkUgEsViMBTSfn4PmHILBIKanpzEzM8MCc2QBwAVd+nw+H+RyOZPDEIlECIfDKJfL32WZlBa0TqfD7OwsfvjhB5b2WCwWSKXSL6i89AyEQiFTSjCbzfB6vZiZmYHb7cbGxgYODg7YKOqw7wg0g6xSqTA1NYWFhQU8efIECwsLcLvdMBqNUCqVLNemYObm5J1OB41GA/l8HpFIBHt7e9jc3MT+/j7vI7UXFxdoNBpMrS+VSsFqtbLAvAkGugRzwR3SEIvFkMlkUKlU7MulKhFJanwvmJiYgFwuh9PpxPPnz/HLL7/g9evXWFxchMViYWnCdaOM3B+a/aXTgORE9Ho9FAoFI4MN0zxbIpHAZDJhaWkJ//znP/HLL79gdXUVs7OzsNls0Gq1kMvlbEaZ5jGIfsJVhCBZFJJEUSqVTGmDz5SIBvXVajWsViujyN+UMcpbABC4QaBUKpnArkQiYVQF7oD1QwV5KGi1Wrjdbjx9+hT//Oc/8fPPP7PFfxe5D3pudEEmmvfk5CQbHOF7DoNOMJPJhPn5ebx+/Rr/+te/8Pz5c0xPT7MKy00umNxgphKlwWCAWq3GxMQES5X4spaik0Qul8NoNLJnRs3Gb71f3gOAQCVSehB6vZ4NbtCIZbvdfpClUtr17XY7lpeX8Y9//AO//vorXrx4Aa/Xe2ddz6snAnk0mEwmWCwWaDQaRhXm89mJxWIYjUYsLy/jX//6F16/fo2FhQWYzWYWxHf9LCS1r1QqoVKpIJFImFIEXycBBbBGo4HdbofdbodCobjR+x6q9h6pTBuNRna063Q66PV6GI1GBINBZpIxzJIZH6D8WCaTQaPRwGazYXZ2Fk+ePMHKygr8fj9LefioiwsEAkbxplQSAOLxOMLhMPL5PMu/B30drVYLv9+P1dVV/PDDD1hcXITBYGBVq0F/v1QqhcViYWkJV2CrWCwOHARUEaKx0VqtBr1ef/8BQKAyKYlrTU1NIRAIYG9vDzs7Ozg+PkYymWQ+AeMG7iV3amoKs7OzWFpawsLCAmZmZmCxWNjuNgxQMNDlky8FZvpenE4nXr58iR9//BFzc3PQ6/W865JShWx2dpbNZpAEzqBVrouLC7TbbTZPTOO6N/k+hn4CEIgQJpVK2QXJbDZjamoKHo8HwWCQmatP5wAAHaJJREFUOcaQItl9Voxo0SsUClaidLlc8Pl8CAQC8Pv9cDqdrJs7TGk/UlCg/Jkvqgnl/X6/HysrKwgEAjAYDEORpKR7ocFgwOzsLAqFAuLxOMrlMhKJxMATa91uF5VKhU35NZtN1hP4K4xUfpgkPaRSKaxWK7RaLTweD5aWlthg+tHREU5OTpBKpVAuly+lRsMOBspbRSIR5HI59Ho9bDYbpqenMTs7i0AgAK/XC6vVyhxcqMJDn20YID8FGuckdYxBIZfL4Xa7sbi4iEAgAIvFMrRTjDA5OcmCbnFxkc1jDxIAtEGQgEKhULhxz2GkAcClT3DLflQtcDqdmJ2dxenpKWKxGJLJJLLZLMrlMur1Orv88TnswbUlVSgUUKlU0Ov17HRyOBxwuVxwOp2w2WwwGAyMyDYqUKeVBsT5qKCIRCJoNBp4PB52f+HTEfRroLTLYrHA7/cjGAwytYpB7oDn5+dot9uoVCps4xy7AOCC2whSqVRQKBSw2WwIBAIoFApIpVKIRqOIRqNIJBJIp9PI5XJMppskNO6SCtA8A9WrNRoNW/RWq/XSordYLMwghKtbyX3NYZPBSB6lUqnwosfELU54vV64XC6o1eqRKTQTRdzlcsHtdsNgMCCfzw/UKebqKFFRhXtX+tp3dG8BcFV6kThExCylE2FxcfELJYdsNotwOIxgMIhMJnMruQ+BQMBKmLOzs/B4PLBYLKxebTAYoNfrL2nZU+PnvkApEPeLHQR0HzMajbDb7TCZTMyQb5jBzP3OpVIpDAYD7HY7LBYLuwcM8tlIWpIyhbE+Aa6CK3dIbEOj0XiJZ0IKw4lEAh8+fGDU69ukBMRzcblc+Pnnn/H8+XPYbDZoNBoolUpmUH1VnPVbO8kwQeOOjUaDl/SH2KokKXObzikfoAsx14FIpVINbDxCtPJWq3Vj2sjYBMDXlJ+p1T45OQmFQsHITplMBlqt9tbmfVRSNBgM8Hg88Pl8rJJDqgP3scj/CnTJo0GQQYsBxD8yGo3QaDT34kdM3wOlnwqFYuD3wK2WUbf8W8WJsQmAvwJVZohz0m63oVKpbtyev+53UTmWdv5xXPhccKfG+AgAKj5wJ9NGCToF5HI5I9jxcQfhulje5AS4H1+aAcGHoTb3d3xv7NRvgYoAEonkXhY/gbsZ3Zcl7IMLAD4XLdF4xx3DCFSuEcV9nnx8v4/b6kE9uAD4O4JLkuMLFPz3fQIO633c9Hk9uADgczEMu+w3rjg/P0e322VNxfsKAK43HF/v47ap7YMLgL8ruD5hg4I6y19z4BkFSN/0tnX7b4Fo+Dd9Vo8B8ABAcxVcJYZBQDMFJA3P13DKbUDUhWq1ilKpxMvcM12qSavqJmXVxwB4AOBqL/FhKk0BQC7wtVpt6B4PXFy1wOIaAQ4ConjI5fIbD/I8BsADAHXHqffBRwDQ4HoymUQulxu5DlGn00GhUEAymUQ6neYlAGiKjjr6jyfAdwLyZSBV5EGZqDRAQsoN0WiUmdINMwjoYtrv91GtVhGNRnF6eopcLseLZIpIJIJCoWBOQVwZmq/hMQAeAKhzSwQ9vtKgcrnM3GVuSyq8K4ivk81mmTEhHybk11ErbvKMHlwAXC1z3WXHemgdYGKwarVa6HQ6KJXKgclrXE2d/f19HB0dMZOTYT4X8pEIBoPY399HLBZDs9kc+DVp96eZc5lMdqMAeBBcoL876BKs1WqZIWA+n0e32x1o4XS7XeRyORweHsJms11SfOPmz4OUXrnvr9/vo1Kp4Pj4GJubmzg8PEQ2mx14DpzGV1UqFaOz33S45zEAHgC4sh9msxkmkwnxeBz1en1gPlSr1UIikcDGxgbUajVjZV51YhzkvQN/yBiWy2UcHx/jw4cP2NjYQDwe5638KZPJYDKZYDab2bjqTQL3QQQAfcnDOJofQhpEzEmVSgWbzQar1QqFQoFCoTDw4un3+ygWi9jf32clRJFIxDx5ryPL/dXCuvo8iaJcqVQQDAaxvr6O33//HTs7O7xIogB/nJAqlYp5RqtUqhuT6x5EAHAnibiSfINcBOnfX3WWH0dQd1Mul8NqtcLpdEKn0yGVSvGipUT6PPv7+8zjoV6v32lWmPscaZItk8ng+PgYnz59wtraGvb29lgKxwdIcsXhcMBsNt84/wfGOAC4uz6X403qCKShf9vSHe1INGReKBRYjs01fLg6sjkOmJychNlshtPphNVqRTQa5U0msdvtIplMot1uo9lsstlaUougize3tMh9NtzCwvn5OZvPTafTODo6wqdPn7C+vo6DgwNe7Vtpws9iscDlcsFsNt9K2WJsA4AGz7kD4eSMHolEsLGxgVgsdusckn5fNBrF2toa2u02W1AGgwEajeaSoO24gNIgvV4Pp9MJp9OJcDjMxAEGBZUni8Uidnd3WZ1+fn4es7OzcLvdMJvNrMZ+VSCA69tcrVaRzWYRiURwdHSEg4MDBINBxONxlEolXsXPJBIJmx93uVzs7nIv8uiDgnaQXq/HFMNKpRJyuRxSqRQSiQTi8TjTnU8kErduoNCxHIvFAACZTIYtKIfDwQwgqOlE8u7jwBylWV6bzYaZmRkmkcinSTlVhmq1GrLZLJMe9/l8cLlcTH2ZVDImJibYjt9qtVCtVpHL5RCLxXB8fIzj42NEo1EUCgXeu82U+zudTszMzMBut9/aPHvsAqDT6TCn85OTEwSDQbbYSSOIWIx3ofPSaxQKBVYH5yrVOZ1OptHv8XjYwPxtZ4+HAaoGGY1G+P1+nJyc4PT0lPku8AXqFGcyGdRqNcTjcWxtbcFoNMJgMECn00GlUjFhMJrDrdVqKJVKTMGjWCyiWq0OTeWPqlWzs7Pw+/1MFfo239NYBADRYiuVCktxgsEgU4lLJBKMMDVo7Rv4Mwg6nQ4qlQpjW6pUKgSDQQSDQYRCIfj9frbzWSwW1oW9L4kUKgKQ7WogEMDx8TGKxSJvFRUC17ivUqkglUoxPpJKpWLqGXQCdLtddncgp9BhEuzoOTidTgQCAbjdbqjV6lunrvcaAHRhajQayGQyODo6Yj5ZoVCIKUeTOfKwuCokvdLr9VCv15FKpXBwcACbzQa/34/l5WWsrKzA5/NdqjLc14kglUqZOvXc3ByzH2o0GkN5PWJvUhEin89fugxzL780jD5sSoVUKoXdbkcgEGAGHnfRNL23ACA+eLFYxOnpKfb397G9vY3d3V2Ew2HeCFI3Bd09SGOyUqmw4zybzTLjt7m5OTidTmbQfB9BIBKJoFar4Xa7sby8jEwmwy6Xw9p16aJLl937BInszs3N4cmTJ2z3v8uA/8jFcYE/U55sNov9/X18/PgRHz9+xMHBAdLpNFv49zmwfn5+ziaV8vk8otEoTk5OkEwmsbq6ikAgwHLOqyJao4BIJILZbMbS0hKy2SxSqRQajcZ3b0ZIUprkyrO8vMzceO7y/Ed+AhAV9vT0FDs7O1hfX8fW1hZCoRByudzQyVi3AeW2NLdKJwPl3EtLS3A6nbyIOt0UXClJpVIJl8uF5eVlZLNZphxXr9dH8l7uA3K5HB6PB8+ePcPy8jJcLtclB87bYiQBwC1v0uJfX1/H27dv8fnzZ+YlPK4718XFBSudlstllEol5n97cXHBbFCvM8MbJiQSCfR6PQKBAJONrFarrKH1ECRfbgrSE7VYLFhaWmLmfXq9fiBJ95GdAL1eD6VSCUdHR1hbW8O7d++wvb2NZDL5YNzkyYonFAqxpk+9XsfLly8xPT0NjUYzUtl04I8gsFgsWF5eZtWXi4sLxONx3rqt4wCJRAKbzYanT5/ixx9/ZBa0g/oZDPXb4u785XIZoVAIa2tr+M9//oOtrS2kUqkH9yURpTcYDDINSuLqeL3eO5Xi7gKudioZlLdaLbRaLbTbbTZ0wkfZ+D5BHXCj0YiFhQX8+OOPePbsGdxuN1Qq1cDVuKFvV9R5PTk5wdu3b/F///d/2NraQjqdHks/sJui0+kgHo9fWlwikQher3ekdwLgTz7M9PQ0E9Ht9/vY3t5GOp2+96rNIBCJRDCZTFheXsbr16/x448/Ynp6mjczj6EFANWF6/U64+6sra1hZ2fnQe78V0GBHY/H2TieQqGAWCxmF+NR3Afo94vFYuh0Ovh8PiYNThqgmUyGl6mrUYI4/mazme38L1++hM/ng06n403TdKgB0G63kUql8OnTJ7x58wabm5tIpVIPeue/ik6ng0QigU+fPkEsFl8Sex01fUIoFEKn02FxcZGpIygUCnz+/BnxeJxXztAwQRfeqakpPH36FD///DNevXqF6elpaLVaXk/XoQQAtdFzuRwODg5YqTOZTKLVag3jJe8N1MmOxWKQSqXMC5nM4GiqahQnAXGFDAYDE50l152d/9fetXalcbXRrYByZwTkOkDkZlDUkNXE1ub/r36oidZLFEErgoBclQGJoL4fup6T0SZvE+cAYzJ7ra5+EzLMc85z23vv7rIulpoPIL1eD0EQEAqFsLKygvX1dbx+/RrxeJy9/DyfJfcAoNSn0+ng+PgY79+/x9bWFk5PT7ms7aoR9/f3kCQJJycnzPCPNibH6b1FmJ6ehsPhwOLiIqxWK5xOJ1wuFzY3N5HL5dBoNFQ1bwEeejHHYjFm2r26uopgMPjNKg/fC+4BQLlxuVzG7u4utre3USgUIEnSs2h1PhU04Ds+PobL5cL8/DzrUfNyj/8WyG8CnU6HUCjEFv08Hg/++usvHB4ejmQ3/6mYmZmBIAgIBAJIJBJYXV1lvsV+v39kLz/AMQDoNCF6XS6Xw/b2Ng4ODrhvKn4NX2JyyZlloz7xhsMharUa9vf34fP5EAwGmf/WuFIh4KGfGbmvCIIAv9+PYDAIn8+HnZ2dB3wCXu4z3wJqG+t0OphMJmZXtby8jEwmg3Q6jXA4zDjJ9G8axbPjegPQxPT09BQ7OzvIZrO4uLgYS8eHfIepEKUTg8gag8Hgm43TngpSWahUKjg4OEAoFGImdON0Ynn8OQaDAYIgwGAwwGq1wufzIR6P4+DgANlsFoVCARcXF7i6uhrLjWAwGJjCRTgcRiKRYDv9RGu02WwPhoqjenZcb4Cbmxu0Wi3kcjns7e0x0aNRvHRU4JHJtdVqhc1mg9lsZl0YAGxi2+120el0IEkSrq+vH6xY84S89bu7u4twOAy/38+CkzCOYJB/Br10FosF8/PzCIVCePHiBSKRCA4ODtiiX6vVYrv89HyeYmBBtzGd9Hq9nnmCOZ1OBAIBLCwsYHFxEalUCgsLC/B6vUz6cVyHBbcAoB++VCrh6OgI+XwerVZrJKkPbQSSmzu5uBOVkVSUAbB1hXa7jVqthvPzcxSLRZRKJdRqtZHUJoPBALVajVECX7x4wbQ9J8kqI/lwIrg7HA6Ew2Gsrq4yU/KzszMmmEuMLmLeDYfD/3xW9NLr9foHZoRUFwUCAUQiEUQiEYiiCL/fD5fLxX6zcXOxFQcAnQq063N6eorj4+MHa828QPJ3brcb4XAYsVgMsVgMkUgEPp8PTqeTsZVmZ2fZrUQew+RAf3p6ylhfxWIRjUYDvV6PW7DSYXB+fo58Po9kMgmPx8O2FicJCgK9Xg+z2QyXy4VgMIiFhQVUKhWcn5+jVCqhXC4/CIJut8v8d4mYJL8R6MTX6/XMy8BsNrOX3+PxwO/3QxRFVoeQgtskjfq43QCDwYA5uJdKJUiSxEWzhkAUuIWFBbx69QqvXr3Cy5cvEQwGmXcwWanKT5H7+3sIggCPx4NIJILr62u0Wi2mibm1tcU6VZ1Oh1sQ0OZroVBAPp9HLBaDz+cbqyH1f0F+I8zOzsLtdiMej6PT6eDq6gqdTocRg9rtNi4vL9Hr9ZihxuMAoDrMbDbD4XBAEAQIggCHwwGHw8GU5+iAUoMvM5cAIKmRcrmMk5MTroWvnAgej8eRyWTw5s0bLC0tQRRFtoH5rQ/x/v6eOaS73W44nU7Y7XZsb28jl8uh2WxyI3D3+31UKhWcnp6iWq0iEokwORG1QH4jmEwmOBwOuN1uxoGgFFKSJHS73QdCBI8DgFIfo9EIi8XCJtH0wvNwt+GNJweAvL0oV3KgaSOvk5Q2AZeXl/Hu3Tusr69jcXERLpfryQR1vV7Prl+n0wmPx8P2Sw4ODtBoNLgskFFLmFKKdrs99kW57wW1G6mbRqrUxND7f8WwvAVNynuPNfrlLVo1gEsN0O/3WX5NhSWPANDr9XC5XFheXsbvv/+O3377DalUCm63+8l7NnJ5RerPU1pCP/De3h7a7bbiFI74A8QnbjQaT5LuGCfUoH80TigOANqFIeJ4u93mMmaXcz/fvHmDd+/eIZVKweVyQa/XKzpJ5N+N5AZXVlYAgIk7kYeVkiKeDodWq4VKpYJarYZwOAybzfbkv6mBL7gEAGlA8lRymJmZQTAYxNraGjKZDOLx+L8ku596UsmvY3mNkUwmmagTEeKV1jLyA4J4u3d3d6pOg34mKA4A+TVPBaRSTE9Pw263IxaLYW1tDclkkqU9owCt33o8HqazUy6XuZhQyP24arUa4z5PsvWn4TMUleREd5QkifWLlebNU1NTMJvN8Hq9SCQSePny5b+4n6NyijcajRBFEUtLS0wa3Gg0Kv4cMoegm2WS7uwaHkJRAJCimiRJrEfMw+zMZrNBFEVEo1GIoshWikdVoMmHOA6HA6FQCNFolKk9KG3dDYdD1lOflDO7hi9D0S8rt7rvdrtcCNg6nY6N6IPBIBwOx3fJXSvB1NQ/RsuCIEAURYiiyIjXSkDPiaap2g2gHjz5lyWpvE+fPqHX66HX63HZtiRGEO328DCG/lbInVi8Xi+T21ZasJK25vX19YNJqobJg0sKRFIcSk826sgIgsB06MetswN8JpjTWi6PACAJcdpEVasI2M+GJwcAqQLTyPzm5kZxbktWRTabDQ6HA2azeexqa1QLmM1mWK1WmM1mxSN8ui1vbm7YQpmWAqkDim8AIpoMBgPFjCKdTsfkRcivdhKtQgqC2dlZxi1Q+j3oFpA/Kw2Th+LkmkjwPOh0o3jxnvo95KsScobZU/DY6G9UPgcavh9cqkveffkvuRCOG/KFLm1g9eNCVbupd3d3rFgkyuIkTko6sckwg9ft9nhDUsPkoSgAKFUgYoPSdiV1lcjuZ1LaNfKuzadPnxTn7PJdeeIGawGgDih6Y8lcbnZ2ljF8lASBfLDW6XQmpnFP9k3dbpcFotIAoAKfzOXURgz5WaFoEEZ9e6PR+MBPV8nfJFfCer3OdovGoekj/w6DwYAZc9PujhLIi3tiR2kBoA4omgPITzVeXRvyEqhUKmg2m2PtmVOgkX/Z+fk5Li8vFQ+ttABQLxT9Cjqd7oEKMY++/e3tLdrtNpPnuLy8HNvujFzbqFgsolgsKibFAJ8HfMSP1Vah1QPFNQAFgN1uh8lkUrw2cHd3h6urK5ydnTEyOZFIRpUK0d8lbkOlUsHJyQnOzs4gSZLizyTlBXpGWgCoB4oDgH7cubk5ZhSnBHd3d7i+vka1WsXR0RGy2SxqtRpXiZXHoJnDzc0NKpUKstksc63s9/uKA4CkCd1uN2w2m1YEqwiKCTHE3Z2fn2f6k0oxGAzQarWQz+exs7ODk5OTB6kQr5tA7nBOyhbyz+RBjAf+4R07nU7Mz89zOSQ08IOiVUsqhK1WK7xeL1tfpkU5Jej3+ygUCvjw4QPT7kkmk5ibm+OePtze3qLVauHo6Aibm5vMyYYXvdNkMjEdIkoTtRRIHVC8azw9Pc0CwOv1wm63c+neyF9KQRCYWnA0GuWmtkwtz3a7jaOjI/z55594//49crkcN22jmZkZpoRMAaC9/OqB4gAgMzMSPnW73ahWq4o7N/RyNhoNbG9vs+ns7e0ts8tRui90e3uLZrOJbDbLHCz39/e5pT46nY5pmfp8PibmpUE9eHIAyFXAKMcNBAIIBAIoFotczK9Jb79UKuH+/h7T09OMhB+NRuFyuZi46rcWlbTC3e12Ua/Xkc/nsbm5iT/++AO7u7vMW5cHiN0WCATg9/shCMLEVrw1fBlcbgC9Xg+bzQa/349IJILj42PUajUuOTRJL1JO3mw2US6Xkclk8PLlS6YPSsOlr71c1OYkoapisYiPHz/iw4cP2NraQj6f5z54m5mZYaK8fr//X6YPGiYPLr8GzQN8Ph8SiQSOjo5wdnbGbZeHbgLyF5YkCRcXF/j7778RjUYRCASYNDpNpB87xPR6PXQ6HdTrdZRKJRwfH+Pw8JB9V15pD4EUJiKRCOLxOObn51UtifizgttxRI7e8XgcsVgM+Xwe3W6Xq0HzcDhEo9FAp9PB2dkZ9vf3EQ6HEYlEEAqF4PV64XQ6HwzkSLmabg4asBUKBVSrVWYLxHPpjjo/pG1EqnZa+1N94JICAZ+1PIPBIOLxOI6OjtBsNtHv97kSwG9vbxmvttvtolar4eTkBE6nE4IgwGq1skHT1NQUU67odDpot9toNBpotVq4vLzE9fX1SLZNSdQ3FoshHo8jEAiMzTlew/eB2w0gN2mOxWJYXFxkuzw8bwECrS1IkoRyucw8qIiXIH/Rbm9vMRwOMRgMRu6GSF0xURSZ9xXZpWovv/rAtSKbnp6GxWJBJBLBysoKisUi6vU6yuXyyNwHqbilk57wWI9+HKCOGAntptNpiKLIhoMa1AeuNwDwz96Lx+PB4uIiCoUC8wprNBpjJbdMgkmm0+mY0/ny8jISiQTcbre2/KZicO/J0WqEKIpYW1tjOTfJAv6oagikMB0KhZjZs9/vh8lk0hbfVAzuAUD2OnNzc0gmk2i1Wri4uGCuidfX17w/UhWgvD+dTiOTySAWi01M2U7Dt2Nkv87s7Cz8fj/S6TTa7TYzWKtUKj+cLKDBYIDX68Xq6irevn2L5eVleDweVTlCavgyRhYAtAcjiiJevXoFSZKYe0y9XucyJVYDyGJpeXkZ6+vrWFtbQyAQgNls1lKfZ4CRBQCR5h0OB5LJJAaDAfr9PobDIfb29tBoNJ79TSA38dvY2MD6+jri8TgXSXUN48HIAkDeFRIEAYlEgu3ZTE1N4ePHj8/6JpiZmYHX60U6nWb2rdFo9Lt9izVMFiOv0GhA5vV62dYmMbE+fvzI1Zh6HJCb6i0tLWFjYwMbGxtIpVKYm5vT1h2eGUYaAPJT0GAwwOl0IpVKsZah2WzG/v4+yuUy+v3+KL8KF0xNTcFisSAQCCCdTuPXX3/FmzdvkEwmGR1UO/mfF8bSo6MdGLoJZmZm2H9GoxF7e3tM/UGNtwF9d9p1SqfTePv2LX755RckEomx2jhp4IuxNqnlM4JUKgWLxQKPx4NAIMB28smaVE2YnZ2F1+tFMplEJpNBJpNBKpViFkray/98MfYAkOfQJpMJNpsNgiBAEAS4XC7k83lUq1V0Op2JemmR6JfNZoPP50MymcTa2hpev36NZDIJr9fL+L3ay/98MXU/oXxDbrJ3eXmJYrGIw8ND7OzsYG9vD/l8HpVKBZIkjb1dKme4xWIxpNNpZthNp75c20cLgOeLic3piUqp1+uZuhyZ44miiMPDQxwfH+P8/JyJ1I7KYnR6ehoGgwEmkwl2ux0ulwvBYBDRaBSLi4tIJpNYWFiAx+NhvmUafgxM7AYgyMWphsMher0ems0mSqUScrkcstkscrkcCoUCarUarq6u0Ov1/hUI3/rPkJ/WVJNYLBYmXRKJRJBIJJBMJh/QLY1GI/NB0E78HwcTD4DHIIHaq6sr1Ot1nJ+fM6HacrmMarWKRqOBy8tLtl7R7/eZ9Sj5lclBriwGg4H5j5ELpN1uh9vtZr7AoVAIoijC5/MxKUOtyP1xoZoAeHyay61FJUlCs9lEtVpFpVJBpVJBtVpFvV5/EAzk5kKBAHzWL6UUhyxYnU4n3G43PB4PfD4f/H4/vF4v5ubmYLFYGLvscZGrBcKPBdUEwNfw2JGe3GM6nQ6urq7Q6XQY14BugpubG1Y4GwwG5mJjNBphMplgsVhgs9lgt9ths9lgtVofeAJrac7PA9UGwNe+Ft0O5LlLvrvE+SVfry8FAFme0hDua6e8HFog/NhQbQD8F+TFs/z/8jrgsTMjkeU1p0YNhGcbABo08IC2tK7hp8b/ALqUmoCssg+hAAAAAElFTkSuQmCC;fontStyle=0;fontSize=14;" parent="1" vertex="1">
                    <mxGeometry x="478.21" y="382.25" width="61.57" height="84.5" as="geometry"/>
                </mxCell>
                <mxCell id="83" value="" style="endArrow=classic;html=1;strokeWidth=2;endFill=1;startArrow=none;startFill=0;fillColor=#d5e8d4;strokeColor=#000000;" parent="1" edge="1">
                    <mxGeometry width="50" height="50" relative="1" as="geometry">
                        <mxPoint x="300" y="426.5" as="sourcePoint"/>
                        <mxPoint x="471" y="426" as="targetPoint"/>
                        <Array as="points">
                            <mxPoint x="339" y="426"/>
                        </Array>
                    </mxGeometry>
                </mxCell>
                <mxCell id="86" value="" style="endArrow=classic;html=1;strokeWidth=2;endFill=1;startArrow=none;startFill=0;fillColor=#d5e8d4;strokeColor=#000000;" parent="1" edge="1">
                    <mxGeometry width="50" height="50" relative="1" as="geometry">
                        <mxPoint x="558" y="424.5" as="sourcePoint"/>
                        <mxPoint x="729" y="424" as="targetPoint"/>
                        <Array as="points">
                            <mxPoint x="597" y="424"/>
                        </Array>
                    </mxGeometry>
                </mxCell>
                <mxCell id="88" value="&lt;font style=&quot;&quot;&gt;&lt;font style=&quot;font-size: 14px;&quot;&gt;MSK Data Generator&lt;/font&gt;&lt;br&gt;&lt;/font&gt;" style="ellipse;whiteSpace=wrap;html=1;aspect=fixed;fillColor=#fff2cc;strokeColor=#d6b656;gradientColor=#ffd966;" vertex="1" parent="1">
                    <mxGeometry x="189" y="374.5" width="100" height="100" as="geometry"/>
                </mxCell>
                <mxCell id="89" value="S3 Sink Connector" style="sketch=0;points=[[0,0,0],[0.25,0,0],[0.5,0,0],[0.75,0,0],[1,0,0],[0,1,0],[0.25,1,0],[0.5,1,0],[0.75,1,0],[1,1,0],[0,0.25,0],[0,0.5,0],[0,0.75,0],[1,0.25,0],[1,0.5,0],[1,0.75,0]];outlineConnect=0;fontColor=#232F3E;gradientColor=#60A337;gradientDirection=north;fillColor=#277116;strokeColor=#ffffff;dashed=0;verticalLabelPosition=bottom;verticalAlign=top;align=center;html=1;fontSize=12;fontStyle=0;aspect=fixed;shape=mxgraph.aws4.resourceIcon;resIcon=mxgraph.aws4.s3;" vertex="1" parent="1">
                    <mxGeometry x="753" y="378.5" width="80" height="80" as="geometry"/>
                </mxCell>
            </root>
        </mxGraphModel>
    </diagram>
</mxfile>